<svg width="96" height="96" viewBox="0 0 96 96" fill="none" xmlns="http://www.w3.org/2000/svg">
  <circle cx="48" cy="48" r="43" stroke="#78B7AA" stroke-width="2"/>
  <path d="M56 25C43 32 34 43 32 58C31 68 37 74 45 72C54 70 58 59 57 47C56 39 54 32 56 25Z" fill="#78B7AA"/>
  <circle cx="61" cy="19" r="5" fill="#DDBB71"/>
  <circle cx="70" cy="25" r="4.5" fill="#DDBB71"/>
  <circle cx="74" cy="35" r="4" fill="#DDBB71"/>
  <circle cx="73" cy="45" r="3.5" fill="#DDBB71"/>
  <circle cx="68" cy="54" r="3" fill="#DDBB71"/>
  <path d="M27 67C41 64 54 55 62 42" stroke="#F8FBFA" stroke-width="3" stroke-linecap="round"/>
  <path d="M34 60C37 55 42 51 48 49" stroke="#F8FBFA" stroke-width="2.5" stroke-linecap="round"/>
</svg>