<svg width="360" height="96" viewBox="0 0 360 96" fill="none" xmlns="http://www.w3.org/2000/svg">
  <g transform="translate(0 0)">
    <circle cx="48" cy="48" r="43" stroke="#78B7AA" stroke-width="2"/>
    <path d="M56 25C43 32 34 43 32 58C31 68 37 74 45 72C54 70 58 59 57 47C56 39 54 32 56 25Z" fill="#78B7AA"/>
    <circle cx="61" cy="19" r="5" fill="#DDBB71"/>
    <circle cx="70" cy="25" r="4.5" fill="#DDBB71"/>
    <circle cx="74" cy="35" r="4" fill="#DDBB71"/>
    <circle cx="73" cy="45" r="3.5" fill="#DDBB71"/>
    <circle cx="68" cy="54" r="3" fill="#DDBB71"/>
    <path d="M27 67C41 64 54 55 62 42" stroke="#F8FBFA" stroke-width="3" stroke-linecap="round"/>
  </g>
  <text x="112" y="44" fill="#25313A" font-family="Georgia, 'Times New Roman', serif" font-size="31" letter-spacing="1">PODOLOG</text>
  <text x="113" y="66" fill="#65716F" font-family="Arial, sans-serif" font-size="12">ПРОФЕССИОНАЛЬНЫЙ УХОД ЗА СТОПАМИ</text>
</svg>